<?xml version="1.0" encoding="UTF-8" standalone="no" ?>
<!DOCTYPE svg PUBLIC "-//W3C//DTD SVG 1.1//EN" "http://www.w3.org/Graphics/SVG/1.1/DTD/svg11.dtd">
<svg xmlns="http://www.w3.org/2000/svg" xmlns:xlink="http://www.w3.org/1999/xlink" version="1.1" width="100" height="100" viewBox="0 0 400 400" xml:space="preserve">
<desc>Created with Fabric.js 3.6.2</desc>
<defs>
</defs>
<g transform="matrix(0.39 0 0 0.39 200.02 200)" id="Logo__x2014__FIXED"  >
<path style="stroke: none; stroke-width: 1; stroke-dasharray: none; stroke-linecap: butt; stroke-dashoffset: 0; stroke-linejoin: round; stroke-miterlimit: 2; fill: rgb(255,255,255); fill-rule: nonzero; opacity: 1;"  transform=" translate(-256, -256)" d="M 448 512 l -384 0 c -35.328 0 -64 -28.672 -64 -64 l 0 -384 c 0 -35.328 28.672 -64 64 -64 l 384 0 c 35.328 0 64 28.672 64 64 l 0 384 c 0 35.328 -28.672 64 -64 64 Z" stroke-linecap="round" />
</g>
<g transform="matrix(0.4 0 0 0.4 200 200)" id="rect2986"  >
<path style="stroke: none; stroke-width: 1; stroke-dasharray: none; stroke-linecap: butt; stroke-dashoffset: 0; stroke-linejoin: miter; stroke-miterlimit: 4; fill: rgb(44,163,219); fill-rule: nonzero; opacity: 1;"  transform=" translate(-250, -250)" d="M 50 0 C 22.3 0 0 22.299999 0 49.999999 L 0 450 c 0 27.7 22.3 50 50 50 l 400 0 c 27.7 0 50 -22.3 50 -50 L 500 49.999999 C 500 22.299999 477.7 0 450 0 L 50 0 z m 237.875 90.031251 l 48.9375 0 l 0 56.062499 l -29.34375 0 c -23.3813 0 -26.6875 7.62535 -26.6875 22.6875 l 0 33.34375 l 56.03125 0 l -6.65625 56.0625 l -49.375 0 l 0 168.125 l -72.6875 0 l 0 -168.125 l -39.40625 0 l 0 -56.0625 l 39.40625 0 l 0 -37.375 c 0 -47.20056 19.79545 -74.718749 79.78125 -74.718749 z" stroke-linecap="round" />
</g>

</svg>