<?xml version="1.0" encoding="UTF-8" standalone="no" ?>
<!DOCTYPE svg PUBLIC "-//W3C//DTD SVG 1.1//EN" "http://www.w3.org/Graphics/SVG/1.1/DTD/svg11.dtd">
<svg xmlns="http://www.w3.org/2000/svg" xmlns:xlink="http://www.w3.org/1999/xlink" version="1.1" width="100" height="100" viewBox="0 0 400 400" xml:space="preserve">
<desc>Created with Fabric.js 3.6.2</desc>
<defs>
</defs>
<g transform="matrix(0.39 0 0 0.39 200.01 200)" id="Layer_1"  >
<path style="stroke: none; stroke-width: 1; stroke-dasharray: none; stroke-linecap: butt; stroke-dashoffset: 0; stroke-linejoin: round; stroke-miterlimit: 2; fill: rgb(44,163,219); fill-rule: nonzero; opacity: 1;"  transform=" translate(-256, -256)" d="M 448 512 l -384 0 c -35.328 0 -64 -28.672 -64 -64 l 0 -384 c 0 -35.328 28.672 -64 64 -64 l 384 0 c 35.328 0 64 28.672 64 64 l 0 384 c 0 35.328 -28.672 64 -64 64 Z" stroke-linecap="round" />
</g>
<g transform="matrix(0.39 0 0 0.39 197.56 197.25)" id="path9"  >
<path style="stroke: none; stroke-width: 1; stroke-dasharray: none; stroke-linecap: butt; stroke-dashoffset: 0; stroke-linejoin: miter; stroke-miterlimit: 4; fill: rgb(255,255,255); fill-rule: nonzero; opacity: 1;"  transform=" translate(-249.8, -249.01)" d="M 378.92 125.44 l -264.48 102 c -18.05 7.24 -17.94 17.31 -3.29 21.8 l 66 20.59 l 25.24 77.38 c 3.07 8.47 1.56 11.83 10.45 11.83 c 6.86 0 9.91 -3.13 13.73 -6.86 c 2.43 -2.38 16.86 -16.41 33 -32.08 l 68.61 50.7 c 12.63 7 21.74 3.36 24.89 -11.73 l 45 -212.24 C 402.66 128.35 391 120 378.92 125.44 Z M 187.46 265.11 l 148.68 -93.8 c 7.42 -4.5 14.23 -2.08 8.64 2.88 L 217.48 289.05 l -5 52.87 Z" stroke-linecap="round" />
</g>
</svg>